Coordinates
version=1
nRows=13
nColumns=36
inDegrees=yes

Units are S.I. units (second, meters, Newtons, ...)
If the header above contains a line with 'inDegrees', this indicates whether rotational values are in degrees (yes) or radians (no).

endheader
time	pelvis_tilt	pelvis_list	pelvis_rotation	pelvis_tx	pelvis_ty	pelvis_tz	hip_flexion_r	hip_adduction_r	hip_rotation_r	knee_angle_r	knee_angle_r_beta	ankle_angle_r	subtalar_angle_r	mtp_angle_r	hip_flexion_l	hip_adduction_l	hip_rotation_l	knee_angle_l	knee_angle_l_beta	ankle_angle_l	subtalar_angle_l	mtp_angle_l	lumbar_extension	lumbar_bending	lumbar_rotation	arm_flex_r	arm_add_r	arm_rot_r	elbow_flex_r	pro_sup_r	arm_flex_l	arm_add_l	arm_rot_l	elbow_flex_l	pro_sup_l
      1.12000000	     -1.37230465	     -1.25449400	      2.48597754	      1.14694671	      1.04843552	     -0.17555115	     19.97778963	      2.57422585	     -7.10574454	      9.15177733	      0.15972865	     -3.81035963	     -3.25092294	     -7.17403196	     -5.80050122	      1.61039791	      7.24716272	      7.05073015	      0.12305846	     14.02388741	      1.55078621	     -7.17403196	     -9.92968249	     -9.50887145	    -10.86248380	    -19.12954877	     -3.36655889	    -14.34348755	     43.69427293	    105.24051064	     13.09625672	    -28.17004096	     -6.52647718	     61.21333275	     96.39498100
      1.13000000	     -1.06139882	     -1.22945671	      2.55340978	      1.15819731	      1.04750385	     -0.17601212	     19.37432490	      2.50150089	     -7.82536975	      6.63768680	      0.11584949	     -3.00732158	      0.17861803	     -7.18722281	     -6.76389658	      1.56827275	      6.83246383	      7.18580374	      0.12541593	     14.73940983	      2.43952706	     -7.18722281	    -10.12198519	     -9.07675546	    -10.37414238	    -19.13102165	     -2.97780853	    -15.75273036	     43.96362154	    105.13124795	     13.82634750	    -27.88163078	     -5.46890485	     61.64410164	     96.49294704
      1.14000000	     -1.04792948	     -1.18719011	      2.53731260	      1.16944182	      1.04614366	     -0.17632064	     19.04355480	      2.52431864	     -7.38832247	      4.31880348	      0.07537734	     -2.37202273	      2.23461467	     -7.19526359	     -7.35351846	      1.60552878	      6.67158937	      7.44348126	      0.12991326	     15.15579189	      2.54207670	     -7.19526359	     -9.94580761	     -8.71531098	     -9.99499700	    -19.01385469	     -2.83593058	    -16.25147201	     43.87956292	    105.08841007	     14.13069414	    -27.59490740	     -4.83242979	     62.30611070	     96.56552232
      1.15000000	     -1.02802736	     -1.16549847	      2.47418312	      1.18081078	      1.04476402	     -0.17653575	     18.80757474	      2.55542011	     -7.05728586	      2.55833363	      0.04465135	     -1.17241388	      4.55258283	     -7.20607332	     -7.91107824	      1.61563428	      6.49217965	      7.79753057	      0.13609258	     15.52479266	      2.75528581	     -7.20607332	     -9.75718934	     -8.32104110	     -9.57607807	    -18.92497560	     -2.70847846	    -16.86366481	     43.92905490	    105.04026456	     14.33288880	    -27.29299045	     -4.23306250	     62.94486178	     96.57829883
      1.16000000	     -1.17937231	     -1.18054297	      2.39220867	      1.19220829	      1.04321369	     -0.17667742	     18.81600576	      2.65442260	     -6.21091380	      1.26504945	      0.02207928	     -0.30410001	      5.53530268	     -7.20774329	     -8.21599650	      1.60735200	      6.49406442	      8.28740995	      0.14464259	     15.72986226	      2.59202144	     -7.20774329	     -9.35033505	     -7.89085969	     -9.22945936	    -18.79762029	     -2.72562297	    -16.97405677	     43.83156497	    105.02425006	     14.32602244	    -26.89446151	     -3.92510352	     63.54066439	     96.64005690
      1.17000000	     -1.12184460	     -1.12724835	      2.10527387	      1.20366522	      1.04189889	     -0.17659987	     18.80356327	      2.70579280	     -5.45256413	      0.80683556	      0.01408194	      1.40226781	      7.13315743	     -7.21122780	     -8.73755160	      1.69911284	      6.24664600	      8.84306548	      0.15434061	     16.10230271	      2.39686053	     -7.21122780	     -9.18935746	     -7.54819254	     -8.74324533	    -18.57058306	     -2.71378451	    -17.31783480	     43.75145070	    104.98219213	     14.18849215	    -26.63964527	     -3.49637915	     64.33925805	     96.69680740
      1.18000000	     -1.01351670	     -1.21268306	      2.02182693	      1.21551056	      1.04083349	     -0.17663509	     18.73063523	      2.82450149	     -5.75622559	      0.69825314	      0.01218682	      3.07935418	      9.60925442	     -7.21991650	     -9.27002208	      1.57418890	      6.09071922	      9.43998233	      0.16475877	     16.24365395	      2.67146008	     -7.21991650	     -9.05758493	     -7.00301952	     -8.45579743	    -18.39507429	     -2.62380057	    -17.86721298	     43.83191419	    104.93150508	     13.94025651	    -26.32855872	     -3.08504535	     65.00258128	     96.62426628
      1.19000000	     -0.89693559	     -1.39948458	      1.93057282	      1.22747555	      1.03989115	     -0.17658624	     18.50973627	      3.12955954	     -5.18012203	      0.67229660	      0.01173379	      3.58477179	      9.97757533	     -7.22166881	     -9.73872500	      1.36149639	      6.06920834	     10.21454710	      0.17827748	     16.29670067	      2.46316350	     -7.22166881	     -8.91131975	     -6.36335189	     -8.09130243	    -18.23849737	     -2.70256664	    -17.93546108	     43.73157392	    104.92027050	     13.71255414	    -25.87042460	     -2.80892770	     65.51160019	     96.65873469
      1.20000000	     -0.70895171	     -1.57953208	      1.84699619	      1.23969626	      1.03915685	     -0.17645357	     18.12752210	      3.44143128	     -4.56103846	      0.83298929	      0.01453841	      3.91791138	     10.20549378	     -7.22358803	    -10.24404957	      1.14713133	      5.96547101	     11.06789729	      0.19317125	     16.28334587	      2.26978606	     -7.22358803	     -8.82830513	     -5.74358617	     -7.78485776	    -18.07735083	     -2.75497472	    -18.06693911	     43.66382450	    104.90323689	     13.32211740	    -25.48944913	     -2.50153222	     66.10986427	     96.70019521
      1.21000000	     -0.49998660	     -1.78913310	      1.80439732	      1.25215508	      1.03860024	     -0.17626774	     17.69112205	      3.78499627	     -4.04085818	      1.22971225	      0.02146253	      3.87078015	     10.19682728	     -7.22527483	    -10.73154107	      0.88779368	      5.88219035	     11.99801527	      0.20940487	     16.11358379	      2.13052730	     -7.22527483	     -8.75810141	     -5.09336309	     -7.53831498	    -17.92526648	     -2.79380850	    -18.19818719	     43.62710109	    104.88779375	     12.81627487	    -25.12324199	     -2.20684001	     66.69249458	     96.74356524
      1.22000000	     -0.28604125	     -1.98859600	      1.76203890	      1.26478151	      1.03816046	     -0.17600768	     17.25290883	      4.13420526	     -3.64340228	      1.84757714	      0.03224630	      3.51713835	      9.80019113	     -7.22774088	    -11.12512302	      0.63115563	      5.59230304	     13.10447185	      0.22871618	     15.84163512	      1.94300094	     -7.22774088	     -8.70475819	     -4.45869218	     -7.34217089	    -17.78002417	     -2.81880437	    -18.38216973	     43.63273760	    104.87104055	     12.08879066	    -24.82567393	     -1.93314658	     67.47756598	     96.78986402
      1.23000000	     -0.26430790	     -2.19393543	      1.70574137	      1.27750441	      1.03761498	     -0.17554116	     17.01824218	      4.52090711	     -2.98920787	      2.59705096	      0.04532709	      2.61360088	      8.57234304	     -7.23449496	    -11.22476594	      0.34351492	      5.18234695	     14.36698602	      0.25075121	     15.42799201	      1.95907121	     -7.23449496	     -8.41991514	     -3.84992444	     -7.48385300	    -17.49331239	     -2.79001717	    -18.59542711	     43.71858340	    104.86726903	     10.83222940	    -24.67330109	     -2.01918782	     68.69669367	     96.76248443
      1.24000000	     -0.03645675	     -2.36205154	      1.75404728	      1.29043665	      1.03754308	     -0.17527383	     16.53748995	      4.81004162	     -2.79421987	      3.43658541	      0.05997973	      2.18149894	      8.35040544	     -7.23591308	    -11.56977037	      0.11572008	      5.18429256	     15.54857706	      0.27137386	     14.85532782	      1.88993575	     -7.23591308	     -8.35096885	     -3.26441890	     -7.30031650	    -17.43719942	     -2.84552047	    -18.57457568	     43.63300420	    104.86788624	     10.15769702	    -24.23447532	     -1.79488165	     69.02156570	     96.78064830
